<svg width="39" height="47" viewBox="0 0 39 47" fill="none" xmlns="http://www.w3.org/2000/svg">
<path d="M1 1C1.0221 1.0048 1.15377 1.09601 2.25615 2.07106C3.24706 2.94752 5.07851 4.6386 6.181 5.6196C7.28349 6.60061 7.59244 6.83044 8.60478 7.44622C9.61712 8.062 11.3235 9.05677 13.1657 10.0303C15.008 11.0039 16.9344 11.9261 18.0282 12.4609C19.6587 13.2582 20.0491 13.6233 20.8916 14.1554C21.6933 14.6616 23.0121 15.6562 25.1593 17.3848C25.6892 17.8114 26.2828 18.6508 27.2054 20.0344C27.9993 21.2251 28.6333 22.9294 29.1927 24.6357C29.4338 25.3708 29.7807 26.1735 30.2183 27.3493C30.4414 28.0736 30.6202 28.8761 30.9493 31.9988C31.1571 34.5705 31.4478 39.1464 31.7094 43.8846" stroke="white" stroke-width="2" stroke-linecap="round"/>
<path d="M27.0654 40.3569C27.0772 40.4347 27.2017 40.7186 27.8046 41.7269C28.0674 42.1664 28.7262 42.8549 29.5 43.5C30.2559 44.1302 30.5491 44.5781 30.8123 44.9415C31.0128 45.2181 31.2983 45.4115 31.5 45.5C31.6455 45.5639 32.2956 45.1533 33.539 44.3478C34.2124 43.9117 35.0522 43.5506 35.5806 43.2676C36.6982 42.6693 37.1219 42.2697 37.3876 42.0628C37.4383 42.0281 37.4893 41.9934 37.5245 41.9461C37.5596 41.8987 37.5772 41.8399 37.5953 41.7793" stroke="white" stroke-width="2" stroke-linecap="round"/>
</svg>
